<svg width="133" height="32" viewBox="0 0 133 32" fill="none" xmlns="http://www.w3.org/2000/svg">
<path d="M9.31244 7.13043C12.2744 7.13043 14.6085 8.17391 16.3145 10.2609C17.7925 12.0487 18.497 14.2542 18.4278 16.8774C18.4091 17.5869 17.7913 18.1217 17.066 18.1217H6.00362C5.77127 18.1217 5.60089 18.3372 5.68781 18.5481C5.90799 19.0822 6.26315 19.543 6.7533 19.9304C7.36939 20.4174 8.1632 20.7072 9.13472 20.8C9.8219 20.8464 10.4854 20.7536 11.1252 20.5217C11.4614 20.3877 11.7485 20.2281 11.9865 20.0428C12.3683 19.7457 12.8072 19.4783 13.295 19.4783H16.3646C17.3045 19.4783 17.9901 20.3643 17.5492 21.1766C16.9358 22.3066 16.0621 23.2361 14.9283 23.9652C13.2933 25.0319 11.3858 25.5652 9.20581 25.5652C6.31493 25.5652 4.05198 24.6841 2.41697 22.9217C0.805657 21.1362 0 18.9449 0 16.3478C0 13.7043 0.864896 11.513 2.59469 9.77391C4.34818 8.01159 6.58743 7.13043 9.31244 7.13043ZM9.2769 11.8609C8.40016 11.8609 7.63004 12.0696 6.96656 12.487C6.47314 12.791 6.09247 13.1846 5.82456 13.668C5.70675 13.8805 5.87774 14.1217 6.1248 14.1217H12.4068C12.6501 14.1217 12.8215 13.887 12.7157 13.6725C12.1201 12.4648 10.9738 11.8609 9.2769 11.8609Z" fill="#1761FF"/>
<path d="M33.4388 9.77391V4.01739C33.4388 1.79865 35.2768 0 37.5441 0C38.2999 0 38.9126 0.599549 38.9126 1.33913V23.947C38.9126 24.5901 38.4621 25.1494 37.8231 25.2998L36.2453 25.6709C35.6345 25.8146 34.9997 25.5489 34.6839 25.0174L33.4388 22.9217H33.2966C32.728 23.7101 31.9697 24.3478 31.0219 24.8348C30.074 25.3217 29.0077 25.5652 27.8229 25.5652C25.406 25.5652 23.4274 24.6957 21.8871 22.9565C20.3706 21.1942 19.6123 18.9681 19.6123 16.2783C19.6123 13.5652 20.3824 11.3623 21.9227 9.66957C23.4866 7.97681 25.4533 7.13043 27.8229 7.13043C29.0077 7.13043 30.074 7.37391 31.0219 7.86087C31.9697 8.34783 32.728 8.98551 33.2966 9.77391H33.4388ZM26.3656 13.3913C25.5837 14.1565 25.1927 15.142 25.1927 16.3478C25.1927 17.5536 25.5837 18.5507 26.3656 19.3391C27.1476 20.1043 28.131 20.487 29.3158 20.487C30.5005 20.487 31.4839 20.0928 32.2659 19.3043C33.0478 18.5159 33.4388 17.5304 33.4388 16.3478C33.4388 15.1884 33.0478 14.2145 32.2659 13.4261C31.5076 12.6145 30.5242 12.2087 29.3158 12.2087C28.131 12.2087 27.1476 12.6029 26.3656 13.3913Z" fill="#1761FF"/>
<path d="M41.5264 16.8696V11.7304C41.5264 9.49728 43.3763 7.68696 45.6584 7.68696C46.419 7.68696 47.0357 8.2904 47.0357 9.03478V16.8C47.0357 17.7971 47.32 18.6435 47.8887 19.3391C48.4574 20.0116 49.2868 20.3478 50.3768 20.3478C51.4668 20.3478 52.2961 20.0116 52.8648 19.3391C53.4335 18.6435 53.7179 17.7971 53.7179 16.8V11.7304C53.7179 9.49728 55.5678 7.68696 57.8498 7.68696C58.6105 7.68696 59.2271 8.2904 59.2271 9.03478V16.8696C59.2271 19.5594 58.4333 21.6812 56.8457 23.2348C55.2818 24.7884 53.1255 25.5652 50.3768 25.5652C47.6518 25.5652 45.4954 24.7884 43.9078 23.2348C42.3202 21.6812 41.5264 19.5594 41.5264 16.8696Z" fill="#1761FF"/>
<path d="M82.7418 7.16522C84.6138 7.16522 86.2132 7.77971 87.5402 9.0087C88.8671 10.2145 89.5306 12.0812 89.5306 14.6087V23.6957C89.5306 24.44 88.914 25.0435 88.1533 25.0435C85.8713 25.0435 84.0214 23.2332 84.0214 21V15.5478C84.0214 14.4348 83.7607 13.6348 83.2394 13.1478C82.7418 12.6609 82.1139 12.4174 81.3556 12.4174C80.5499 12.4174 79.8628 12.6957 79.2941 13.2522C78.7254 13.8087 78.441 14.6551 78.441 15.7913V23.6957C78.441 24.44 77.8244 25.0435 77.0637 25.0435C74.7817 25.0435 72.9317 23.2332 72.9317 21V15.6174C72.9317 14.5043 72.6829 13.7043 72.1853 13.2174C71.6877 12.7304 71.0598 12.487 70.3015 12.487C69.4248 12.487 68.7139 12.8 68.1689 13.4261C67.6239 14.0522 67.3514 14.8986 67.3514 15.9652V23.6957C67.3514 24.44 66.7347 25.0435 65.9741 25.0435C63.692 25.0435 61.8421 23.2332 61.8421 21V8.94783C61.8421 8.23226 62.4349 7.65217 63.1661 7.65217H65.0055C66.1833 7.65217 67.1381 8.58654 67.1381 9.73913H67.2803C68.4888 8.02319 70.1356 7.16522 72.2209 7.16522C74.4246 7.16522 76.0122 8.02319 76.9837 9.73913H77.1259C78.5713 8.02319 80.4433 7.16522 82.7418 7.16522Z" fill="#1761FF"/>
<path d="M105.186 9.77391L106.431 7.67821C106.747 7.14672 107.381 6.88105 107.992 7.02474L109.57 7.3959C110.209 7.54621 110.659 8.10553 110.659 8.74866V23.947C110.659 24.5901 110.209 25.1494 109.57 25.2998L107.992 25.6709C107.381 25.8146 106.747 25.5489 106.431 25.0174L105.186 22.9217H105.044C104.475 23.7101 103.717 24.3478 102.769 24.8348C101.821 25.3217 100.755 25.5652 99.5698 25.5652C97.2002 25.5652 95.2335 24.7188 93.6695 23.0261C92.1293 21.3333 91.3592 19.1304 91.3592 16.4174C91.3592 13.7275 92.1175 11.513 93.634 9.77391C95.1742 8.01159 97.1528 7.13043 99.5698 7.13043C100.755 7.13043 101.821 7.37391 102.769 7.86087C103.717 8.34783 104.475 8.98551 105.044 9.77391H105.186ZM101.063 20.487C102.271 20.487 103.254 20.0928 104.013 19.3043C104.795 18.4928 105.186 17.5072 105.186 16.3478C105.186 15.1652 104.795 14.1797 104.013 13.3913C103.231 12.6029 102.247 12.2087 101.063 12.2087C99.8778 12.2087 98.8944 12.6029 98.1125 13.3913C97.3305 14.1565 96.9395 15.142 96.9395 16.3478C96.9395 17.5536 97.3305 18.5507 98.1125 19.3391C98.8944 20.1043 99.8778 20.487 101.063 20.487Z" fill="#1761FF"/>
<path d="M124.789 7.13043C127.206 7.13043 129.173 8.01159 130.69 9.77391C132.23 11.513 133 13.7275 133 16.4174C133 19.1304 132.218 21.3333 130.654 23.0261C129.114 24.7188 127.159 25.5652 124.789 25.5652C123.605 25.5652 122.538 25.3217 121.59 24.8348C120.643 24.3478 119.884 23.7101 119.316 22.9217H119.174V27.9826C119.174 30.2013 117.336 32 115.068 32C114.312 32 113.7 31.4004 113.7 30.6609V8.74866C113.7 8.10553 114.15 7.54621 114.789 7.3959L116.367 7.02474C116.978 6.88105 117.613 7.14672 117.928 7.67822L119.174 9.77391H119.316C119.884 8.98551 120.643 8.34783 121.59 7.86087C122.538 7.37391 123.605 7.13043 124.789 7.13043ZM123.297 20.487C124.481 20.487 125.465 20.1043 126.247 19.3391C127.029 18.5507 127.42 17.5536 127.42 16.3478C127.42 15.142 127.029 14.1565 126.247 13.3913C125.465 12.6029 124.481 12.2087 123.297 12.2087C122.112 12.2087 121.128 12.6029 120.346 13.3913C119.564 14.1797 119.174 15.1652 119.174 16.3478C119.174 17.5072 119.553 18.4928 120.311 19.3043C121.093 20.0928 122.088 20.487 123.297 20.487Z" fill="#1761FF"/>
</svg>
