<svg width="165" height="32" viewBox="0 0 165 32" fill="none" xmlns="http://www.w3.org/2000/svg">
<path d="M3.32507 22.0605H26.6749V23.0799C26.6749 26.3936 23.9886 29.0799 20.6749 29.0799H9.32507C6.01136 29.0799 3.32507 26.3936 3.32507 23.0799V22.0605Z" fill="#6EB2FF"/>
<path fill-rule="evenodd" clip-rule="evenodd" d="M4.33059 26.0895C6.16116 27.9201 9.10744 27.9201 15 27.9201C20.8925 27.9201 23.8389 27.9201 25.6694 26.0895C27.5 24.259 27.5 21.3126 27.5 15.4201C27.5 9.52757 27.5 6.5813 25.6694 4.75072C23.8389 2.92014 20.8925 2.92014 15 2.92014C9.10744 2.92014 6.16116 2.92014 4.33059 4.75072C2.5 6.5813 2.5 9.52757 2.5 15.4201C2.5 21.3126 2.5 24.259 4.33059 26.0895Z" fill="#0077FF"/>
<path d="M16.7784 22.1224L21.1685 10.6651C21.5205 9.74647 20.6736 8.89965 19.755 9.25165L8.2978 13.6418C7.25973 14.0395 7.22598 15.4951 8.24762 15.8055L12.5939 17.1261C12.9319 17.2289 13.1912 17.4883 13.294 17.8263L14.6146 22.1725C14.925 23.1941 16.3806 23.1604 16.7784 22.1224Z" fill="white"/>
<path d="M41.3124 7.13043C44.2744 7.13043 46.6085 8.17391 48.3145 10.2609C49.7925 12.0487 50.497 14.2542 50.4278 16.8774C50.4091 17.5869 49.7913 18.1217 49.066 18.1217H38.0036C37.7713 18.1217 37.6009 18.3372 37.6878 18.5481C37.908 19.0822 38.2632 19.543 38.7533 19.9304C39.3694 20.4174 40.1632 20.7072 41.1347 20.8C41.8219 20.8464 42.4854 20.7536 43.1252 20.5217C43.4614 20.3877 43.7485 20.2281 43.9865 20.0428C44.3683 19.7457 44.8072 19.4783 45.295 19.4783H48.3646C49.3045 19.4783 49.9901 20.3643 49.5492 21.1766C48.9358 22.3066 48.0621 23.2361 46.9283 23.9652C45.2933 25.0319 43.3858 25.5652 41.2058 25.5652C38.3149 25.5652 36.052 24.6841 34.417 22.9217C32.8057 21.1362 32 18.9449 32 16.3478C32 13.7043 32.8649 11.513 34.5947 9.77391C36.3482 8.01159 38.5874 7.13043 41.3124 7.13043ZM41.2769 11.8609C40.4002 11.8609 39.63 12.0696 38.9666 12.487C38.4731 12.791 38.0925 13.1846 37.8246 13.668C37.7068 13.8805 37.8777 14.1217 38.1248 14.1217H44.4068C44.6501 14.1217 44.8215 13.887 44.7157 13.6725C44.1201 12.4648 42.9738 11.8609 41.2769 11.8609Z" fill="#0077FF"/>
<path d="M65.4388 9.77391V4.01739C65.4388 1.79865 67.2768 0 69.5441 0C70.2999 0 70.9126 0.599549 70.9126 1.33913V23.947C70.9126 24.5901 70.4621 25.1494 69.8231 25.2998L68.2453 25.6709C67.6345 25.8146 66.9997 25.5489 66.6839 25.0174L65.4388 22.9217H65.2966C64.728 23.7101 63.9697 24.3478 63.0219 24.8348C62.074 25.3217 61.0077 25.5652 59.8229 25.5652C57.406 25.5652 55.4274 24.6957 53.8871 22.9565C52.3706 21.1942 51.6123 18.9681 51.6123 16.2783C51.6123 13.5652 52.3824 11.3623 53.9227 9.66957C55.4866 7.97681 57.4533 7.13043 59.8229 7.13043C61.0077 7.13043 62.074 7.37391 63.0219 7.86087C63.9697 8.34783 64.728 8.98551 65.2966 9.77391H65.4388ZM58.3656 13.3913C57.5837 14.1565 57.1927 15.142 57.1927 16.3478C57.1927 17.5536 57.5837 18.5507 58.3656 19.3391C59.1476 20.1043 60.131 20.487 61.3158 20.487C62.5005 20.487 63.4839 20.0928 64.2659 19.3043C65.0478 18.5159 65.4388 17.5304 65.4388 16.3478C65.4388 15.1884 65.0478 14.2145 64.2659 13.4261C63.5076 12.6145 62.5242 12.2087 61.3158 12.2087C60.131 12.2087 59.1476 12.6029 58.3656 13.3913Z" fill="#0077FF"/>
<path d="M73.5264 16.8696V11.7304C73.5264 9.49728 75.3763 7.68696 77.6584 7.68696C78.419 7.68696 79.0357 8.2904 79.0357 9.03478V16.8C79.0357 17.7971 79.32 18.6435 79.8887 19.3391C80.4574 20.0116 81.2868 20.3478 82.3768 20.3478C83.4668 20.3478 84.2961 20.0116 84.8648 19.3391C85.4335 18.6435 85.7179 17.7971 85.7179 16.8V11.7304C85.7179 9.49728 87.5678 7.68696 89.8498 7.68696C90.6105 7.68696 91.2271 8.2904 91.2271 9.03478V16.8696C91.2271 19.5594 90.4333 21.6812 88.8457 23.2348C87.2818 24.7884 85.1255 25.5652 82.3768 25.5652C79.6518 25.5652 77.4954 24.7884 75.9078 23.2348C74.3202 21.6812 73.5264 19.5594 73.5264 16.8696Z" fill="#0077FF"/>
<path d="M114.742 7.16522C116.614 7.16522 118.213 7.77971 119.54 9.0087C120.867 10.2145 121.531 12.0812 121.531 14.6087V23.6957C121.531 24.44 120.914 25.0435 120.153 25.0435C117.871 25.0435 116.021 23.2332 116.021 21V15.5478C116.021 14.4348 115.761 13.6348 115.239 13.1478C114.742 12.6609 114.114 12.4174 113.356 12.4174C112.55 12.4174 111.863 12.6957 111.294 13.2522C110.725 13.8087 110.441 14.6551 110.441 15.7913V23.6957C110.441 24.44 109.824 25.0435 109.064 25.0435C106.782 25.0435 104.932 23.2332 104.932 21V15.6174C104.932 14.5043 104.683 13.7043 104.185 13.2174C103.688 12.7304 103.06 12.487 102.302 12.487C101.425 12.487 100.714 12.8 100.169 13.4261C99.6239 14.0522 99.3514 14.8986 99.3514 15.9652V23.6957C99.3514 24.44 98.7347 25.0435 97.9741 25.0435C95.692 25.0435 93.8421 23.2332 93.8421 21V8.94783C93.8421 8.23226 94.4349 7.65217 95.1661 7.65217H97.0055C98.1833 7.65217 99.1381 8.58654 99.1381 9.73913H99.2803C100.489 8.02319 102.136 7.16522 104.221 7.16522C106.425 7.16522 108.012 8.02319 108.984 9.73913H109.126C110.571 8.02319 112.443 7.16522 114.742 7.16522Z" fill="#0077FF"/>
<path d="M137.186 9.77391L138.431 7.67821C138.747 7.14672 139.381 6.88105 139.992 7.02474L141.57 7.3959C142.209 7.54621 142.659 8.10553 142.659 8.74866V23.947C142.659 24.5901 142.209 25.1494 141.57 25.2998L139.992 25.6709C139.381 25.8146 138.747 25.5489 138.431 25.0174L137.186 22.9217H137.044C136.475 23.7101 135.717 24.3478 134.769 24.8348C133.821 25.3217 132.755 25.5652 131.57 25.5652C129.2 25.5652 127.233 24.7188 125.67 23.0261C124.129 21.3333 123.359 19.1304 123.359 16.4174C123.359 13.7275 124.117 11.513 125.634 9.77391C127.174 8.01159 129.153 7.13043 131.57 7.13043C132.755 7.13043 133.821 7.37391 134.769 7.86087C135.717 8.34783 136.475 8.98551 137.044 9.77391H137.186ZM133.063 20.487C134.271 20.487 135.254 20.0928 136.013 19.3043C136.795 18.4928 137.186 17.5072 137.186 16.3478C137.186 15.1652 136.795 14.1797 136.013 13.3913C135.231 12.6029 134.247 12.2087 133.063 12.2087C131.878 12.2087 130.894 12.6029 130.112 13.3913C129.331 14.1565 128.94 15.142 128.94 16.3478C128.94 17.5536 129.331 18.5507 130.112 19.3391C130.894 20.1043 131.878 20.487 133.063 20.487Z" fill="#0077FF"/>
<path d="M156.789 7.13043C159.206 7.13043 161.173 8.01159 162.69 9.77391C164.23 11.513 165 13.7275 165 16.4174C165 19.1304 164.218 21.3333 162.654 23.0261C161.114 24.7188 159.159 25.5652 156.789 25.5652C155.605 25.5652 154.538 25.3217 153.59 24.8348C152.643 24.3478 151.884 23.7101 151.316 22.9217H151.174V27.9826C151.174 30.2013 149.336 32 147.068 32C146.312 32 145.7 31.4004 145.7 30.6609V8.74866C145.7 8.10553 146.15 7.54621 146.789 7.3959L148.367 7.02474C148.978 6.88105 149.613 7.14672 149.928 7.67822L151.174 9.77391H151.316C151.884 8.98551 152.643 8.34783 153.59 7.86087C154.538 7.37391 155.605 7.13043 156.789 7.13043ZM155.297 20.487C156.481 20.487 157.465 20.1043 158.247 19.3391C159.029 18.5507 159.42 17.5536 159.42 16.3478C159.42 15.142 159.029 14.1565 158.247 13.3913C157.465 12.6029 156.481 12.2087 155.297 12.2087C154.112 12.2087 153.128 12.6029 152.346 13.3913C151.564 14.1797 151.174 15.1652 151.174 16.3478C151.174 17.5072 151.553 18.4928 152.311 19.3043C153.093 20.0928 154.088 20.487 155.297 20.487Z" fill="#0077FF"/>
</svg>
